<?xml version="1.0" encoding="utf-8"?>
<svg id="Layer_1" x="0px" y="0px" width="640px" height="400px" viewBox="0 0 640 400" xmlns="http://www.w3.org/2000/svg">
  <defs>
    <style id="bx-google-fonts">@import url(https://fonts.googleapis.com/css?family=Roboto:100,300,500,700,900,100italic,300italic,400,400italic,500italic,700italic,900italic);</style>
  </defs>
  <g transform="matrix(1, 0, 0, 1, -1.659999, 66.399963)">
    <g>
      <g>
        <path fill="#F4F4EB" d="M192.928,200.948c-17.26,19.038-43.65,35.777-76.894,35.777c-53.792,0-89.564-34.504-89.564-91.093&#10;&#9;&#9;&#9;&#9;&#9;c0-58.357,43.897-93.368,77.134-93.368c25.38,0,36.794,14.208,39.081,17.25l5.834-14.208h39.833v72.063h-45.412&#10;&#9;&#9;&#9;&#9;&#9;c-0.767-16.497-8.882-31.973-26.906-31.973c-18.268,0-30.189,22.579-30.189,50.236c0,25.125,12.941,47.708,37.052,47.708&#10;&#9;&#9;&#9;&#9;&#9;c21.31,0,38.055-22.321,40.337-24.869L192.928,200.948z"/>
        <path fill="#F4F4EB" d="M282.751,232.674h-79.67v-33.243h10.653V75.352h-10.653V42.37h61.401v79.156&#10;&#9;&#9;&#9;&#9;&#9;c2.786-4.562,21.317-20.292,39.837-20.292c39.335,0,44.411,29.184,44.411,55.815v42.381h11.922v33.243h-65.21v-69.021&#10;&#9;&#9;&#9;&#9;&#9;c0-8.63,0-23.602-14.966-23.602c-12.95,0-15.994,12.69-15.994,23.602v35.778h18.269V232.674z"/>
        <polygon fill="#F4F4EB" points="429.687,199.431 429.687,105.802 370.813,105.802 370.813,138.784 381.475,138.784 &#10;&#9;&#9;&#9;&#9;&#9;381.475,199.431 370.813,199.431 370.813,232.674 441.866,232.674 441.866,199.431 &#9;&#9;&#9;&#9;"/>
        <path fill="#F4F4EB" d="M528.641,232.674h-74.098v-33.243h10.921V75.094h-10.653V42.37h58.865v157.061h14.965V232.674z"/>
        <path fill="#F4F4EB" d="M612.885,232.674h-74.1v-33.243h10.92V75.094h-10.662V42.37h58.871v157.061h14.971V232.674z"/>
        <g>
          <path fill="#A6C63C" d="M401.549,90.604c18.007,0,27.903-11.668,27.903-25.621c0-11.679-10.398-25.885-27.903-25.885&#10;&#9;&#9;&#9;&#9;&#9;&#9;c-17.764,0-27.4,14.206-27.4,25.885C374.148,77.159,385.556,90.604,401.549,90.604z"/>
        </g>
      </g>
    </g>
  </g>
  <text x="167.28" y="-34.06" style="font-size: 36; font-family: Roboto; white-space: pre;"> </text>
</svg>